<?xml version="1.0" encoding="iso-8859-1"?>
<!-- Generator: Adobe Illustrator 19.0.0, SVG Export Plug-In . SVG Version: 6.00 Build 0)  -->
<svg version="1.1" id="Capa_1" xmlns="http://www.w3.org/2000/svg" xmlns:xlink="http://www.w3.org/1999/xlink" x="0px" y="0px"
	 viewBox="0 0 512 512" style="enable-background:new 0 0 512 512;" xml:space="preserve">
<g>
	<g>
		<g>
			<path d="M464,64H48C21.49,64,0,85.49,0,112v64h32v-60.32l214.72,153.28c5.555,3.955,13.005,3.955,18.56,0L480,115.68V400
				c0,8.837-7.163,16-16,16H64v32h400c26.51,0,48-21.49,48-48V112C512,85.49,490.51,64,464,64z M256,236.32L59.52,96h392.96
				L256,236.32z"/>
			<rect y="416" width="32" height="32"/>
			<rect y="336" width="224" height="32"/>
			<rect x="256" y="336" width="32" height="32"/>
			<rect y="256" width="32" height="32"/>
			<rect x="64" y="256" width="96" height="32"/>
		</g>
	</g>
</g>
<g>
</g>
<g>
</g>
<g>
</g>
<g>
</g>
<g>
</g>
<g>
</g>
<g>
</g>
<g>
</g>
<g>
</g>
<g>
</g>
<g>
</g>
<g>
</g>
<g>
</g>
<g>
</g>
<g>
</g>
</svg>
